<mxfile host="app.diagrams.net" modified="2023-10-16T19:44:12.422Z" agent="Mozilla/5.0 (Windows NT 10.0; Win64; x64) AppleWebKit/537.36 (KHTML, like Gecko) Chrome/118.0.0.0 Safari/537.36 Edg/118.0.2088.46" etag="ahZS_m2JibB-SIETLUrW" version="22.0.4" type="github">
  <diagram name="Page-1" id="8uUQfdQlzwyxCqUWMDw8">
    <mxGraphModel dx="1938" dy="1120" grid="1" gridSize="10" guides="1" tooltips="1" connect="1" arrows="1" fold="1" page="1" pageScale="1" pageWidth="1169" pageHeight="827" math="0" shadow="0">
      <root>
        <mxCell id="0" />
        <mxCell id="1" parent="0" />
        <mxCell id="XMrZmeqTqdPVza6Q-LWn-39" value="" style="group;fontSize=25;" vertex="1" connectable="0" parent="1">
          <mxGeometry x="140" y="40" width="700" height="720" as="geometry" />
        </mxCell>
        <mxCell id="XMrZmeqTqdPVza6Q-LWn-10" value="" style="group;fillColor=#b1ddf0;strokeColor=#10739e;fontSize=25;" vertex="1" connectable="0" parent="XMrZmeqTqdPVza6Q-LWn-39">
          <mxGeometry x="92.5" y="184" width="415" height="140" as="geometry" />
        </mxCell>
        <mxCell id="XMrZmeqTqdPVza6Q-LWn-5" value="" style="rounded=0;whiteSpace=wrap;html=1;fillColor=#f8cecc;strokeColor=#b85450;fontSize=25;" vertex="1" parent="XMrZmeqTqdPVza6Q-LWn-10">
          <mxGeometry width="415" height="140" as="geometry" />
        </mxCell>
        <mxCell id="XMrZmeqTqdPVza6Q-LWn-7" value="PCA Features" style="rounded=0;whiteSpace=wrap;html=1;fillColor=#b0e3e6;strokeColor=#0e8088;fontSize=25;" vertex="1" parent="XMrZmeqTqdPVza6Q-LWn-10">
          <mxGeometry x="27.5" y="40" width="120" height="60" as="geometry" />
        </mxCell>
        <mxCell id="XMrZmeqTqdPVza6Q-LWn-8" value="PCA Features" style="rounded=0;whiteSpace=wrap;html=1;fillColor=#b0e3e6;strokeColor=#0e8088;fontSize=25;" vertex="1" parent="XMrZmeqTqdPVza6Q-LWn-10">
          <mxGeometry x="267.5" y="40" width="120" height="60" as="geometry" />
        </mxCell>
        <mxCell id="XMrZmeqTqdPVza6Q-LWn-29" value="" style="rounded=0;whiteSpace=wrap;html=1;fillColor=#f8cecc;strokeColor=#b85450;fontSize=25;" vertex="1" parent="XMrZmeqTqdPVza6Q-LWn-39">
          <mxGeometry x="210" y="510" width="180" height="210" as="geometry" />
        </mxCell>
        <mxCell id="XMrZmeqTqdPVza6Q-LWn-44" value="" style="edgeStyle=orthogonalEdgeStyle;rounded=0;orthogonalLoop=1;jettySize=auto;html=1;" edge="1" parent="XMrZmeqTqdPVza6Q-LWn-39" source="XMrZmeqTqdPVza6Q-LWn-1" target="XMrZmeqTqdPVza6Q-LWn-2">
          <mxGeometry relative="1" as="geometry" />
        </mxCell>
        <mxCell id="XMrZmeqTqdPVza6Q-LWn-1" value="&lt;font style=&quot;font-size: 25px;&quot;&gt;Current signal&amp;nbsp;&lt;/font&gt;" style="rounded=0;whiteSpace=wrap;html=1;fillColor=#dae8fc;gradientColor=#7ea6e0;strokeColor=#6c8ebf;fontSize=25;" vertex="1" parent="XMrZmeqTqdPVza6Q-LWn-39">
          <mxGeometry x="240" width="120" height="60" as="geometry" />
        </mxCell>
        <mxCell id="XMrZmeqTqdPVza6Q-LWn-36" style="edgeStyle=orthogonalEdgeStyle;rounded=0;orthogonalLoop=1;jettySize=auto;html=1;entryX=0.5;entryY=0;entryDx=0;entryDy=0;fontSize=25;" edge="1" parent="XMrZmeqTqdPVza6Q-LWn-39" source="XMrZmeqTqdPVza6Q-LWn-2" target="XMrZmeqTqdPVza6Q-LWn-7">
          <mxGeometry relative="1" as="geometry">
            <Array as="points">
              <mxPoint x="300" y="200" />
              <mxPoint x="180" y="200" />
            </Array>
          </mxGeometry>
        </mxCell>
        <mxCell id="XMrZmeqTqdPVza6Q-LWn-38" value="&lt;font style=&quot;font-size: 15px;&quot;&gt;Input Data&amp;nbsp;&lt;/font&gt;" style="edgeLabel;html=1;align=center;verticalAlign=middle;resizable=0;points=[];fontStyle=1;fontSize=25;" vertex="1" connectable="0" parent="XMrZmeqTqdPVza6Q-LWn-36">
          <mxGeometry x="0.1757" y="1" relative="1" as="geometry">
            <mxPoint x="-106" y="-1" as="offset" />
          </mxGeometry>
        </mxCell>
        <mxCell id="XMrZmeqTqdPVza6Q-LWn-2" value="&lt;font style=&quot;font-size: 20px;&quot;&gt;Synchronization&lt;/font&gt;" style="rounded=0;whiteSpace=wrap;html=1;fillColor=#dae8fc;gradientColor=#7ea6e0;strokeColor=#6c8ebf;fontSize=25;" vertex="1" parent="XMrZmeqTqdPVza6Q-LWn-39">
          <mxGeometry x="220" y="90" width="160" height="60" as="geometry" />
        </mxCell>
        <mxCell id="XMrZmeqTqdPVza6Q-LWn-4" value="&lt;font style=&quot;font-size: 20px;&quot;&gt;Pre-process&lt;/font&gt;" style="rounded=1;whiteSpace=wrap;html=1;fillColor=#fff2cc;gradientColor=#ffd966;strokeColor=#d6b656;fontSize=25;" vertex="1" parent="XMrZmeqTqdPVza6Q-LWn-39">
          <mxGeometry x="570" y="50" width="120" height="60" as="geometry" />
        </mxCell>
        <mxCell id="XMrZmeqTqdPVza6Q-LWn-11" value="" style="rounded=0;whiteSpace=wrap;html=1;fillColor=#f8cecc;strokeColor=#b85450;fontSize=25;" vertex="1" parent="XMrZmeqTqdPVza6Q-LWn-39">
          <mxGeometry x="92.5" y="360" width="415" height="140" as="geometry" />
        </mxCell>
        <mxCell id="XMrZmeqTqdPVza6Q-LWn-30" value="" style="edgeStyle=orthogonalEdgeStyle;rounded=0;orthogonalLoop=1;jettySize=auto;html=1;entryX=0;entryY=0.25;entryDx=0;entryDy=0;fontSize=25;" edge="1" parent="XMrZmeqTqdPVza6Q-LWn-39" source="XMrZmeqTqdPVza6Q-LWn-12" target="XMrZmeqTqdPVza6Q-LWn-29">
          <mxGeometry relative="1" as="geometry">
            <Array as="points">
              <mxPoint x="20" y="430" />
              <mxPoint x="20" y="563" />
            </Array>
          </mxGeometry>
        </mxCell>
        <mxCell id="XMrZmeqTqdPVza6Q-LWn-32" value="&lt;b style=&quot;&quot;&gt;&lt;font style=&quot;font-size: 15px;&quot;&gt;LDA Euclidean Distance&lt;/font&gt;&lt;/b&gt;" style="edgeLabel;html=1;align=center;verticalAlign=middle;resizable=0;points=[];fontSize=25;" vertex="1" connectable="0" parent="XMrZmeqTqdPVza6Q-LWn-30">
          <mxGeometry x="0.542" y="-2" relative="1" as="geometry">
            <mxPoint x="-2" y="-25" as="offset" />
          </mxGeometry>
        </mxCell>
        <mxCell id="XMrZmeqTqdPVza6Q-LWn-41" value="Text" style="edgeLabel;html=1;align=center;verticalAlign=middle;resizable=0;points=[];" vertex="1" connectable="0" parent="XMrZmeqTqdPVza6Q-LWn-30">
          <mxGeometry x="-0.3852" y="6" relative="1" as="geometry">
            <mxPoint y="-1" as="offset" />
          </mxGeometry>
        </mxCell>
        <mxCell id="XMrZmeqTqdPVza6Q-LWn-12" value="LDA features" style="rounded=0;whiteSpace=wrap;html=1;fillColor=#dae8fc;strokeColor=#6c8ebf;fontSize=25;" vertex="1" parent="XMrZmeqTqdPVza6Q-LWn-39">
          <mxGeometry x="120" y="400" width="120" height="60" as="geometry" />
        </mxCell>
        <mxCell id="XMrZmeqTqdPVza6Q-LWn-13" value="LDA features" style="rounded=0;whiteSpace=wrap;html=1;fillColor=#dae8fc;strokeColor=#6c8ebf;fontSize=25;" vertex="1" parent="XMrZmeqTqdPVza6Q-LWn-39">
          <mxGeometry x="360" y="400" width="120" height="60" as="geometry" />
        </mxCell>
        <mxCell id="XMrZmeqTqdPVza6Q-LWn-15" value="&lt;font style=&quot;font-size: 20px;&quot;&gt;Deterministic Rule&lt;/font&gt;" style="rounded=0;whiteSpace=wrap;html=1;fillColor=#b1ddf0;strokeColor=#10739e;fontSize=25;" vertex="1" parent="XMrZmeqTqdPVza6Q-LWn-39">
          <mxGeometry x="240" y="520" width="120" height="60" as="geometry" />
        </mxCell>
        <mxCell id="XMrZmeqTqdPVza6Q-LWn-16" value="Diagnosis" style="rounded=0;whiteSpace=wrap;html=1;fillColor=#b1ddf0;strokeColor=#10739e;fontSize=25;" vertex="1" parent="XMrZmeqTqdPVza6Q-LWn-39">
          <mxGeometry x="240" y="630" width="120" height="60" as="geometry" />
        </mxCell>
        <mxCell id="XMrZmeqTqdPVza6Q-LWn-18" value="&lt;font style=&quot;font-size: 20px;&quot;&gt;PCA Comparision&lt;/font&gt;" style="rounded=1;whiteSpace=wrap;html=1;fillColor=#fff2cc;gradientColor=#ffd966;strokeColor=#d6b656;fontSize=25;" vertex="1" parent="XMrZmeqTqdPVza6Q-LWn-39">
          <mxGeometry x="570" y="224" width="120" height="60" as="geometry" />
        </mxCell>
        <mxCell id="XMrZmeqTqdPVza6Q-LWn-20" value="&lt;font style=&quot;font-size: 20px;&quot;&gt;LDA Comparision&lt;/font&gt;" style="rounded=1;whiteSpace=wrap;html=1;fillColor=#fff2cc;gradientColor=#ffd966;strokeColor=#d6b656;fontSize=25;" vertex="1" parent="XMrZmeqTqdPVza6Q-LWn-39">
          <mxGeometry x="570" y="400" width="120" height="60" as="geometry" />
        </mxCell>
        <mxCell id="XMrZmeqTqdPVza6Q-LWn-24" value="" style="edgeStyle=orthogonalEdgeStyle;rounded=0;orthogonalLoop=1;jettySize=auto;html=1;fontSize=25;" edge="1" parent="XMrZmeqTqdPVza6Q-LWn-39" source="XMrZmeqTqdPVza6Q-LWn-7" target="XMrZmeqTqdPVza6Q-LWn-12">
          <mxGeometry relative="1" as="geometry" />
        </mxCell>
        <mxCell id="XMrZmeqTqdPVza6Q-LWn-25" value="" style="edgeStyle=orthogonalEdgeStyle;rounded=0;orthogonalLoop=1;jettySize=auto;html=1;fontSize=25;" edge="1" parent="XMrZmeqTqdPVza6Q-LWn-39" source="XMrZmeqTqdPVza6Q-LWn-8" target="XMrZmeqTqdPVza6Q-LWn-13">
          <mxGeometry relative="1" as="geometry" />
        </mxCell>
        <mxCell id="XMrZmeqTqdPVza6Q-LWn-31" style="edgeStyle=orthogonalEdgeStyle;rounded=0;orthogonalLoop=1;jettySize=auto;html=1;entryX=0;entryY=0.75;entryDx=0;entryDy=0;fontSize=25;" edge="1" parent="XMrZmeqTqdPVza6Q-LWn-39" source="XMrZmeqTqdPVza6Q-LWn-7" target="XMrZmeqTqdPVza6Q-LWn-29">
          <mxGeometry relative="1" as="geometry">
            <Array as="points">
              <mxPoint y="254" />
              <mxPoint y="668" />
            </Array>
          </mxGeometry>
        </mxCell>
        <mxCell id="XMrZmeqTqdPVza6Q-LWn-33" value="&lt;b style=&quot;&quot;&gt;&lt;font style=&quot;font-size: 15px;&quot;&gt;PCA Euclidean Distance&lt;/font&gt;&lt;/b&gt;" style="edgeLabel;html=1;align=center;verticalAlign=middle;resizable=0;points=[];fontSize=25;" vertex="1" connectable="0" parent="XMrZmeqTqdPVza6Q-LWn-31">
          <mxGeometry x="0.719" y="-1" relative="1" as="geometry">
            <mxPoint x="15" y="-23" as="offset" />
          </mxGeometry>
        </mxCell>
        <mxCell id="XMrZmeqTqdPVza6Q-LWn-34" value="&lt;font style=&quot;font-size: 20px;&quot;&gt;Diagnostic Part&lt;/font&gt;" style="rounded=1;whiteSpace=wrap;html=1;fillColor=#fff2cc;gradientColor=#ffd966;strokeColor=#d6b656;fontSize=25;" vertex="1" parent="XMrZmeqTqdPVza6Q-LWn-39">
          <mxGeometry x="560" y="585" width="120" height="60" as="geometry" />
        </mxCell>
        <mxCell id="XMrZmeqTqdPVza6Q-LWn-23" value="" style="edgeStyle=orthogonalEdgeStyle;rounded=0;orthogonalLoop=1;jettySize=auto;html=1;fontSize=25;" edge="1" parent="XMrZmeqTqdPVza6Q-LWn-39" source="XMrZmeqTqdPVza6Q-LWn-15" target="XMrZmeqTqdPVza6Q-LWn-16">
          <mxGeometry relative="1" as="geometry" />
        </mxCell>
        <mxCell id="XMrZmeqTqdPVza6Q-LWn-6" value="" style="edgeStyle=orthogonalEdgeStyle;rounded=0;orthogonalLoop=1;jettySize=auto;html=1;entryX=0.5;entryY=0;entryDx=0;entryDy=0;fontSize=25;" edge="1" parent="XMrZmeqTqdPVza6Q-LWn-39" source="XMrZmeqTqdPVza6Q-LWn-2" target="XMrZmeqTqdPVza6Q-LWn-8">
          <mxGeometry relative="1" as="geometry">
            <Array as="points">
              <mxPoint x="300" y="200" />
              <mxPoint x="420" y="200" />
            </Array>
          </mxGeometry>
        </mxCell>
        <mxCell id="XMrZmeqTqdPVza6Q-LWn-37" value="&lt;font style=&quot;font-size: 15px;&quot;&gt;Leaarning Data&amp;nbsp;&lt;/font&gt;" style="edgeLabel;html=1;align=center;verticalAlign=middle;resizable=0;points=[];fontStyle=1;fontSize=25;" vertex="1" connectable="0" parent="XMrZmeqTqdPVza6Q-LWn-6">
          <mxGeometry x="-0.09" y="-16" relative="1" as="geometry">
            <mxPoint x="142" y="-16" as="offset" />
          </mxGeometry>
        </mxCell>
      </root>
    </mxGraphModel>
  </diagram>
</mxfile>
